# 3ds Max Wavefront OBJ Exporter v0.97b - (c)2007 guruware
# 创建的文件:06.08.2017 20:49:44

mtllib cc.mtl

#
# object Cylinder001
#

v  12.5303 0.0000 -61.8842
v  36.9633 0.0000 -41.3825
v  42.5018 0.0000 -50.9754
v  44.4253 0.0000 -61.8842
v  18.0688 0.0000 -30.4737
v  28.4778 0.0000 -34.2623
v  -3.4172 0.0000 -34.2623
v  6.9918 0.0000 -30.4737
v  -17.4412 0.0000 -50.9754
v  -11.9027 0.0000 -41.3825
v  -17.4412 0.0000 -72.7929
v  -19.3647 0.0000 -61.8842
v  -3.4172 0.0000 -89.5060
v  -11.9027 0.0000 -82.3858
v  18.0688 0.0000 -93.2946
v  6.9918 0.0000 -93.2946
v  36.9632 0.0000 -82.3859
v  28.4778 0.0000 -89.5060
v  42.5018 0.0000 -72.7929
v  42.5018 -6.6566 -50.9754
v  44.4253 -6.6566 -61.8842
v  36.9633 -6.6566 -41.3825
v  28.4778 -6.6566 -34.2623
v  18.0688 -6.6566 -30.4737
v  6.9918 -6.6566 -30.4737
v  -3.4172 -6.6566 -34.2623
v  -11.9027 -6.6566 -41.3825
v  -17.4412 -6.6566 -50.9754
v  -19.3647 -6.6566 -61.8842
v  -17.4412 -6.6566 -72.7929
v  -11.9027 -6.6566 -82.3858
v  -3.4172 -6.6566 -89.5060
v  6.9918 -6.6566 -93.2946
v  18.0688 -6.6566 -93.2946
v  28.4778 -6.6566 -89.5060
v  36.9632 -6.6566 -82.3859
v  42.5018 -6.6566 -72.7929
v  42.5018 -13.3131 -50.9754
v  44.4253 -13.3131 -61.8842
v  36.9633 -13.3131 -41.3825
v  28.4778 -13.3131 -34.2623
v  18.0688 -13.3131 -30.4737
v  6.9918 -13.3131 -30.4737
v  -3.4172 -13.3131 -34.2623
v  -11.9027 -13.3131 -41.3825
v  -17.4412 -13.3131 -50.9754
v  -19.3647 -13.3131 -61.8842
v  -17.4412 -13.3131 -72.7929
v  -11.9027 -13.3131 -82.3858
v  -3.4172 -13.3131 -89.5060
v  6.9918 -13.3131 -93.2946
v  18.0688 -13.3131 -93.2946
v  28.4778 -13.3131 -89.5060
v  36.9632 -13.3131 -82.3859
v  42.5018 -13.3131 -72.7929
v  42.5018 -19.9697 -50.9754
v  44.4253 -19.9697 -61.8842
v  36.9633 -19.9697 -41.3825
v  28.4778 -19.9697 -34.2623
v  18.0688 -19.9697 -30.4737
v  6.9918 -19.9697 -30.4737
v  -3.4172 -19.9697 -34.2623
v  -11.9027 -19.9697 -41.3825
v  -17.4412 -19.9697 -50.9754
v  -19.3647 -19.9697 -61.8842
v  -17.4412 -19.9697 -72.7929
v  -11.9027 -19.9697 -82.3858
v  -3.4172 -19.9697 -89.5060
v  6.9918 -19.9697 -93.2946
v  18.0688 -19.9697 -93.2946
v  28.4778 -19.9697 -89.5060
v  36.9632 -19.9697 -82.3859
v  42.5018 -19.9697 -72.7929
v  42.5018 -26.6263 -50.9754
v  44.4253 -26.6263 -61.8842
v  36.9633 -26.6263 -41.3825
v  28.4778 -26.6263 -34.2623
v  18.0688 -26.6263 -30.4737
v  6.9918 -26.6263 -30.4737
v  -3.4172 -26.6263 -34.2623
v  -11.9027 -26.6263 -41.3825
v  -17.4412 -26.6263 -50.9754
v  -19.3647 -26.6263 -61.8842
v  -17.4412 -26.6263 -72.7929
v  -11.9027 -26.6263 -82.3858
v  -3.4172 -26.6263 -89.5060
v  6.9918 -26.6263 -93.2946
v  18.0688 -26.6263 -93.2946
v  28.4778 -26.6263 -89.5060
v  36.9632 -26.6263 -82.3859
v  42.5018 -26.6263 -72.7929
v  42.5018 -33.2829 -50.9754
v  44.4253 -33.2829 -61.8842
v  36.9633 -33.2829 -41.3825
v  28.4778 -33.2829 -34.2623
v  18.0688 -33.2829 -30.4737
v  6.9918 -33.2829 -30.4737
v  -3.4172 -33.2829 -34.2623
v  -11.9027 -33.2829 -41.3825
v  -17.4412 -33.2829 -50.9754
v  -19.3647 -33.2829 -61.8842
v  -17.4412 -33.2829 -72.7929
v  -11.9027 -33.2829 -82.3858
v  -3.4172 -33.2829 -89.5060
v  6.9918 -33.2829 -93.2946
v  18.0688 -33.2829 -93.2946
v  28.4778 -33.2829 -89.5060
v  36.9632 -33.2829 -82.3859
v  42.5018 -33.2829 -72.7929
v  12.5303 -33.2829 -61.8842
# 110 vertices

vn 0.0000 1.0000 -0.0000
vn 1.0000 0.0000 -0.0000
vn 0.9397 0.0000 0.3420
vn 0.7660 0.0000 0.6428
vn 0.5000 0.0000 0.8660
vn 0.1736 0.0000 0.9848
vn -0.1736 0.0000 0.9848
vn -0.5000 0.0000 0.8660
vn -0.7660 0.0000 0.6428
vn -0.9397 0.0000 0.3420
vn -1.0000 0.0000 0.0000
vn -0.9397 0.0000 -0.3420
vn -0.7660 0.0000 -0.6428
vn -0.5000 0.0000 -0.8660
vn -0.1736 0.0000 -0.9848
vn 0.1736 0.0000 -0.9848
vn 0.5000 0.0000 -0.8660
vn 0.7660 0.0000 -0.6428
vn 0.9397 0.0000 -0.3420
vn 0.9397 -0.0000 0.3420
vn 1.0000 -0.0000 -0.0000
vn 0.7660 -0.0000 0.6428
vn 0.5000 -0.0000 0.8660
vn 0.1736 -0.0000 0.9848
vn -0.1736 -0.0000 0.9848
vn -0.5000 -0.0000 0.8660
vn -0.7660 -0.0000 0.6428
vn -0.9397 -0.0000 0.3420
vn -1.0000 -0.0000 0.0000
vn -0.9397 -0.0000 -0.3420
vn -0.7660 -0.0000 -0.6428
vn -0.5000 -0.0000 -0.8660
vn -0.1736 -0.0000 -0.9848
vn 0.1736 -0.0000 -0.9848
vn 0.5000 -0.0000 -0.8660
vn 0.7660 -0.0000 -0.6428
vn 0.9397 -0.0000 -0.3420
vn 0.0000 -1.0000 -0.0000
# 38 vertex normals

vt 0.5000 0.0000 0.0000
vt 0.6389 0.0000 1.0000
vt 0.6944 0.0000 1.0000
vt 0.7500 0.0000 1.0000
vt 0.5278 0.0000 1.0000
vt 0.5833 0.0000 1.0000
vt 0.4167 0.0000 1.0000
vt 0.4722 0.0000 1.0000
vt 0.3056 0.0000 1.0000
vt 0.3611 0.0000 1.0000
vt 0.1944 0.0000 1.0000
vt 0.2500 0.0000 1.0000
vt 0.0833 0.0000 1.0000
vt 0.1389 0.0000 1.0000
vt -0.0278 0.0000 1.0000
vt 0.0278 0.0000 1.0000
vt 0.8611 0.0000 1.0000
vt 0.9167 0.0000 1.0000
vt 0.9722 0.0000 1.0000
vt 0.8056 0.0000 1.0000
vt 0.6944 0.2000 1.0000
vt 0.7500 0.2000 1.0000
vt 0.6389 0.2000 1.0000
vt 0.5833 0.2000 1.0000
vt 0.5278 0.2000 1.0000
vt 0.4722 0.2000 1.0000
vt 0.4167 0.2000 1.0000
vt 0.3611 0.2000 1.0000
vt 0.3056 0.2000 1.0000
vt 0.2500 0.2000 1.0000
vt 0.1944 0.2000 1.0000
vt 0.1389 0.2000 1.0000
vt 0.0833 0.2000 1.0000
vt 0.0278 0.2000 1.0000
vt -0.0278 0.2000 1.0000
vt 0.9167 0.2000 1.0000
vt 0.9722 0.2000 1.0000
vt 0.8611 0.2000 1.0000
vt 0.8056 0.2000 1.0000
vt 0.6944 0.4000 1.0000
vt 0.7500 0.4000 1.0000
vt 0.6389 0.4000 1.0000
vt 0.5833 0.4000 1.0000
vt 0.5278 0.4000 1.0000
vt 0.4722 0.4000 1.0000
vt 0.4167 0.4000 1.0000
vt 0.3611 0.4000 1.0000
vt 0.3056 0.4000 1.0000
vt 0.2500 0.4000 1.0000
vt 0.1944 0.4000 1.0000
vt 0.1389 0.4000 1.0000
vt 0.0833 0.4000 1.0000
vt 0.0278 0.4000 1.0000
vt -0.0278 0.4000 1.0000
vt 0.9167 0.4000 1.0000
vt 0.9722 0.4000 1.0000
vt 0.8611 0.4000 1.0000
vt 0.8056 0.4000 1.0000
vt 0.6944 0.6000 1.0000
vt 0.7500 0.6000 1.0000
vt 0.6389 0.6000 1.0000
vt 0.5833 0.6000 1.0000
vt 0.5278 0.6000 1.0000
vt 0.4722 0.6000 1.0000
vt 0.4167 0.6000 1.0000
vt 0.3611 0.6000 1.0000
vt 0.3056 0.6000 1.0000
vt 0.2500 0.6000 1.0000
vt 0.1944 0.6000 1.0000
vt 0.1389 0.6000 1.0000
vt 0.0833 0.6000 1.0000
vt 0.0278 0.6000 1.0000
vt -0.0278 0.6000 1.0000
vt 0.9167 0.6000 1.0000
vt 0.9722 0.6000 1.0000
vt 0.8611 0.6000 1.0000
vt 0.8056 0.6000 1.0000
vt 0.6944 0.8000 1.0000
vt 0.7500 0.8000 1.0000
vt 0.6389 0.8000 1.0000
vt 0.5833 0.8000 1.0000
vt 0.5278 0.8000 1.0000
vt 0.4722 0.8000 1.0000
vt 0.4167 0.8000 1.0000
vt 0.3611 0.8000 1.0000
vt 0.3056 0.8000 1.0000
vt 0.2500 0.8000 1.0000
vt 0.1944 0.8000 1.0000
vt 0.1389 0.8000 1.0000
vt 0.0833 0.8000 1.0000
vt 0.0278 0.8000 1.0000
vt -0.0278 0.8000 1.0000
vt 0.9167 0.8000 1.0000
vt 0.9722 0.8000 1.0000
vt 0.8611 0.8000 1.0000
vt 0.8056 0.8000 1.0000
vt 0.6944 1.0000 1.0000
vt 0.7500 1.0000 1.0000
vt 0.6389 1.0000 1.0000
vt 0.5833 1.0000 1.0000
vt 0.5278 1.0000 1.0000
vt 0.4722 1.0000 1.0000
vt 0.4167 1.0000 1.0000
vt 0.3611 1.0000 1.0000
vt 0.3056 1.0000 1.0000
vt 0.2500 1.0000 1.0000
vt 0.1944 1.0000 1.0000
vt 0.1389 1.0000 1.0000
vt 0.0833 1.0000 1.0000
vt 0.0278 1.0000 1.0000
vt -0.0278 1.0000 1.0000
vt 0.9167 1.0000 1.0000
vt 0.9722 1.0000 1.0000
vt 0.8611 1.0000 1.0000
vt 0.8056 1.0000 1.0000
vt 0.5000 1.0000 0.0000
vt -0.0197 1.0000 0.8794
# 117 texture coords

g Cylinder001
usemtl wire_006135006
s 1
f 1/1/1 2/2/1 3/3/1 4/4/1 
f 1/1/1 5/5/1 6/6/1 2/2/1 
f 1/1/1 7/7/1 8/8/1 5/5/1 
f 1/1/1 9/9/1 10/10/1 7/7/1 
f 1/1/1 11/11/1 12/12/1 9/9/1 
f 1/1/1 13/13/1 14/14/1 11/11/1 
f 1/1/1 15/15/1 16/16/1 13/13/1 
f 1/1/1 17/17/1 18/18/1 15/19/1 
f 1/1/1 4/4/1 19/20/1 17/17/1 
s 8
f 4/4/2 3/3/3 20/21/3 21/22/2 
f 3/3/3 2/2/4 22/23/4 20/21/3 
f 2/2/4 6/6/5 23/24/5 22/23/4 
f 6/6/5 5/5/6 24/25/6 23/24/5 
f 5/5/6 8/8/7 25/26/7 24/25/6 
f 8/8/7 7/7/8 26/27/8 25/26/7 
f 7/7/8 10/10/9 27/28/9 26/27/8 
f 10/10/9 9/9/10 28/29/10 27/28/9 
f 9/9/10 12/12/11 29/30/11 28/29/10 
f 12/12/11 11/11/12 30/31/12 29/30/11 
f 11/11/12 14/14/13 31/32/13 30/31/12 
f 14/14/13 13/13/14 32/33/14 31/32/13 
f 13/13/14 16/16/15 33/34/15 32/33/14 
f 16/16/15 15/15/16 34/35/16 33/34/15 
f 15/19/16 18/18/17 35/36/17 34/37/16 
f 18/18/17 17/17/18 36/38/18 35/36/17 
f 17/17/18 19/20/19 37/39/19 36/38/18 
f 19/20/19 4/4/2 21/22/2 37/39/19 
f 21/22/2 20/21/3 38/40/20 39/41/21 
f 20/21/3 22/23/4 40/42/22 38/40/20 
f 22/23/4 23/24/5 41/43/23 40/42/22 
f 23/24/5 24/25/6 42/44/24 41/43/23 
f 24/25/6 25/26/7 43/45/25 42/44/24 
f 25/26/7 26/27/8 44/46/26 43/45/25 
f 26/27/8 27/28/9 45/47/27 44/46/26 
f 27/28/9 28/29/10 46/48/28 45/47/27 
f 28/29/10 29/30/11 47/49/29 46/48/28 
f 29/30/11 30/31/12 48/50/30 47/49/29 
f 30/31/12 31/32/13 49/51/31 48/50/30 
f 31/32/13 32/33/14 50/52/32 49/51/31 
f 32/33/14 33/34/15 51/53/33 50/52/32 
f 33/34/15 34/35/16 52/54/34 51/53/33 
f 34/37/16 35/36/17 53/55/35 52/56/34 
f 35/36/17 36/38/18 54/57/36 53/55/35 
f 36/38/18 37/39/19 55/58/37 54/57/36 
f 37/39/19 21/22/2 39/41/21 55/58/37 
f 39/41/21 38/40/20 56/59/3 57/60/2 
f 38/40/20 40/42/22 58/61/4 56/59/3 
f 40/42/22 41/43/23 59/62/23 58/61/4 
f 41/43/23 42/44/24 60/63/24 59/62/23 
f 42/44/24 43/45/25 61/64/7 60/63/24 
f 43/45/25 44/46/26 62/65/8 61/64/7 
f 44/46/26 45/47/27 63/66/27 62/65/8 
f 45/47/27 46/48/28 64/67/28 63/66/27 
f 46/48/28 47/49/29 65/68/11 64/67/28 
f 47/49/29 48/50/30 66/69/12 65/68/11 
f 48/50/30 49/51/31 67/70/13 66/69/12 
f 49/51/31 50/52/32 68/71/32 67/70/13 
f 50/52/32 51/53/33 69/72/33 68/71/32 
f 51/53/33 52/54/34 70/73/16 69/72/33 
f 52/56/34 53/55/35 71/74/17 70/75/16 
f 53/55/35 54/57/36 72/76/36 71/74/17 
f 54/57/36 55/58/37 73/77/37 72/76/36 
f 55/58/37 39/41/21 57/60/2 73/77/37 
f 57/60/2 56/59/3 74/78/20 75/79/2 
f 56/59/3 58/61/4 76/80/22 74/78/20 
f 58/61/4 59/62/23 77/81/5 76/80/22 
f 59/62/23 60/63/24 78/82/6 77/81/5 
f 60/63/24 61/64/7 79/83/25 78/82/6 
f 61/64/7 62/65/8 80/84/26 79/83/25 
f 62/65/8 63/66/27 81/85/9 80/84/26 
f 63/66/27 64/67/28 82/86/10 81/85/9 
f 64/67/28 65/68/11 83/87/29 82/86/10 
f 65/68/11 66/69/12 84/88/30 83/87/29 
f 66/69/12 67/70/13 85/89/31 84/88/30 
f 67/70/13 68/71/32 86/90/14 85/89/31 
f 68/71/32 69/72/33 87/91/15 86/90/14 
f 69/72/33 70/73/16 88/92/34 87/91/15 
f 70/75/16 71/74/17 89/93/35 88/94/34 
f 71/74/17 72/76/36 90/95/18 89/93/35 
f 72/76/36 73/77/37 91/96/19 90/95/18 
f 73/77/37 57/60/2 75/79/2 91/96/19 
f 75/79/2 74/78/20 92/97/20 93/98/21 
f 74/78/20 76/80/22 94/99/22 92/97/20 
f 76/80/22 77/81/5 95/100/23 94/99/22 
f 77/81/5 78/82/6 96/101/24 95/100/23 
f 78/82/6 79/83/25 97/102/25 96/101/24 
f 79/83/25 80/84/26 98/103/26 97/102/25 
f 80/84/26 81/85/9 99/104/27 98/103/26 
f 81/85/9 82/86/10 100/105/28 99/104/27 
f 82/86/10 83/87/29 101/106/29 100/105/28 
f 83/87/29 84/88/30 102/107/30 101/106/29 
f 84/88/30 85/89/31 103/108/31 102/107/30 
f 85/89/31 86/90/14 104/109/32 103/108/31 
f 86/90/14 87/91/15 105/110/33 104/109/32 
f 87/91/15 88/92/34 106/111/34 105/110/33 
f 88/94/34 89/93/35 107/112/35 106/113/34 
f 89/93/35 90/95/18 108/114/36 107/112/35 
f 90/95/18 91/96/19 109/115/37 108/114/36 
f 91/96/19 75/79/2 93/98/21 109/115/37 
s 1
f 110/116/38 109/115/38 93/98/38 92/97/38 
f 110/116/38 92/97/38 94/99/38 95/100/38 
f 110/116/38 95/100/38 96/101/38 97/102/38 
f 110/116/38 97/102/38 98/103/38 99/104/38 
f 110/116/38 99/104/38 100/105/38 101/106/38 
f 110/116/38 101/106/38 102/107/38 103/108/38 
f 110/116/38 103/108/38 104/109/38 105/110/38 
f 110/116/38 105/110/38 106/111/38 107/117/38 
f 110/116/38 107/112/38 108/114/38 109/115/38 
# 108 polygons

